<svg xmlns="http://www.w3.org/2000/svg" viewBox="0 0 768 256"><defs><style>.b{fill:#f49f23}</style></defs><path d="M212.42 109.16l-1.19-2.92-3.15-.18a1134.39 1134.39 0 0 0-130.13 0l-3.15.18-1.2 2.92c-6.4 15.66-6.43 34-.07 51.76l1.11 3.08 3.31.19c21.58 1.24 43.32 1.86 65.06 1.86s43.48-.62 65.07-1.86l3.3-.19 1.12-3.12c6.35-17.68 6.32-36.06-.08-51.72z" fill="#fff"/><path d="M212.42 109.16l-1.19-2.92-3.15-.18a1134.39 1134.39 0 0 0-130.13 0l-3.15.18-1.2 2.92c-6.4 15.66-6.43 34-.07 51.76l1.11 3.08 3.31.19c21.58 1.24 43.32 1.86 65.06 1.86s43.48-.62 65.07-1.86l3.3-.19 1.12-3.12c6.35-17.68 6.32-36.06-.08-51.72zm-8.3 45.27a1122.28 1122.28 0 0 1-122.22 0 63.8 63.8 0 0 1-1.46-34c7-1.5 12.23 2.45 11.51 13.31-4 10.59 12.61 7.84 9-2.75-3.45-10 3.7-21.74 12-9.91 5 7.09-1.53 20.68 3.18 24.75 2.09 1.81 6.37 1.59 7.72-1.23 2.63-5.51.79-5 1.19-11.13 1-15.19 11.27-11.19 22.09-12 12.19-1 18-11 30.64 1 9.92 9.45 2.83 12.74 8.66 14.44 5.67 0 .88-11.51 12.8-16.63 0 0 4.1-2.44 6.45.37a63.71 63.71 0 0 1-1.56 33.78z"/><path class="b" d="M208.82 82.54s-67.07-2.6-130.89.9c0 2.91.11 11.67-.85 14.33 48-.59 102.29-1.59 131-.88a138.72 138.72 0 0 1 .74-14.35zM208 170.47c-29.14 4.21-88.39 0-130 2v13.32c38.36-.61 126.69 2.31 130-1 0-4.11-.56-11.86 0-14.32z"/><path d="M337.38 126.1a11.06 11.06 0 0 0 1.58-5.89 13.77 13.77 0 0 0-1.07-5.35c11-1.36 18.49-6.6 18.59-17.25v-1.15l-1.25-.31c-.94 3.54-3.86 5.73-7.92 5.73-5.62 0-8.64-4-8.64-9.06 0-5.84 4.27-10.21 11.24-10.21 8.54 0 13.23 6.56 13.23 16 0 13.39-7.91 25.68-25.76 27.49zm-3.22-7.29c0-8.45-8.19-16.9-30.42-16.9-22.75 0-36.14 8.06-36.14 20.67 0 .52 0 1 .06 1.51.75 9.77 9 14.62 28.8 17.34 13.91 1.95 16.77 4 16.77 7.8 0 4.82-6.11 7.55-20.93 7.55a65.82 65.82 0 0 1-20.93-3.12 6.6 6.6 0 0 0 3.51-6.12c0-4.16-3-7.8-9.49-7.8-7.54 0-11 4.94-11 10.53 0 11.71 11.18 19.12 37.7 19.12 25.09 0 37.44-8.45 37.44-21.33s-11.31-16.12-30.68-18.72c-12.48-1.69-15.34-3.64-15.34-7.41v-.2c.17-4.56 5.91-7.47 19.48-7.47a65.69 65.69 0 0 1 12.48 1.17 6.46 6.46 0 0 0-1.05 1.68 8.24 8.24 0 0 0-.64 3.26c-.09 3 1.78 5.85 5.31 7.22a13.32 13.32 0 0 0 4.83.84c6.86 0 10.24-4.43 10.24-9.62zm201.67 10c0 19.37-16.64 40.18-46.8 40.18C468.1 169 458 158.21 458 142.34c0-19.5 16.64-40.3 46.8-40.17 20.89-.17 31.03 10.4 31.03 26.65zm-17.94 1.3c.13-9.49-6-14-15.86-13.91-15.86 0-26.13 13.26-26.13 24.83 0 9.23 5.85 13.92 15.73 13.92 15.86-.12 26.37-13.65 26.26-24.83zM608 101.78c-11.57 0-20.8 8.45-29.77 27.3h-1.17a70.1 70.1 0 0 0 1.82-12.61c0-9.75-5.85-14.56-15.21-14.56-8.19 0-16 3.77-24.57 10.66l-.3.26a32.69 32.69 0 0 1 3.2 13.43c9.21-8.19 13.65-10.57 17.68-10.57 3 0 4.29 2 4.29 5.2 0 4.55-2.6 14.69-7.54 27-1.95 4.82-3.77 5.86-7.41 5.86-5.59 0-9.88-.4-12-.4-.91 4.69-3 9.5-4.94 14.31 7.28-.39 50.7-.39 58.63 0 .91-4.68 3.12-9.49 5.07-14.31-2.73.14-9.36.4-16.25.4-4.68 0-5.2-3.13-3.9-6.77 6.76-18.2 17.81-29.9 29.25-29.9 3.77 0 6.89 1.17 9 3.9a11.89 11.89 0 0 0-2.21-.13c-7 0-10.79 4.81-10.79 10.4s3.51 9.1 9.23 9.1c9.1 0 13.65-9.49 13.65-20.28-.01-9.97-4.69-18.29-15.76-18.29zm-156.82 47.05c-4.45 5.61-9.39 7.82-11.08 7.82a2.47 2.47 0 0 1-2.73-2.73c0-7.55 14.69-27.57 14.69-39.79 0-8.06-4-12.22-10.4-12.22-7.8 0-13.26 5.2-19.24 18.85h-1a34.7 34.7 0 0 0 .78-6.63c0-8.58-3.9-12.22-9-12.22-7.28 0-12.61 5.07-18.72 18.85h-1.18a42.38 42.38 0 0 0 .65-6.24c0-8.45-4.16-12.48-11.44-12.48-4.68 0-10.27 1.69-17 7.28a29.23 29.23 0 0 1 5.72 8.45c3-2.73 5.07-4.16 7-4.16 1.69 0 2.34 1.3 2.34 3.51 0 6.37-7.8 28.86-17.42 49.8a120.76 120.76 0 0 1 14.85 1.56c1-2.73 2-5.33 2.86-7.93 14.95-39.4 21.32-44.86 25.09-44.86 1.82 0 2.6 1 2.6 3.25 0 4.81-2.08 12.87-16.9 48.11a110.51 110.51 0 0 1 14.35 1.43c1.69-4.68 3.38-9.1 4.94-13.39 10.4-27.7 17.29-39.4 23.14-39.4 1.82 0 3.25 1 3.25 3.64 0 9-13.52 25-13.52 38.49 0 7.41 4.29 11.18 12 11.18 5.2 0 10.53-2.08 16-7.41l2.58-2.69a30 30 0 0 1-3.19-10.05zm242-3.71a79.37 79.37 0 0 0 8.09 10.44c-12.92 10.7-26 13.44-39 13.44-23.1 0-34.19-10.44-34.19-26.75 0-21.27 17.36-40.58 47.89-40.58 18.14 0 26.36 8.09 26.36 18.66 0 16-20.09 24-56.37 23.49 1 8.35 7.7 11.87 19.44 11.87 8.71 0 20.19-3 27.76-10.57zm-46.48-10.44c27.54-1.43 38.89-4.57 38.89-12.27 0-4.3-3.79-6.78-11.35-6.78-14.36 0-24.67 8.22-27.54 19.05z"/></svg>